<svg width="100" height="107" viewBox="0 0 100 107" fill="none" xmlns="http://www.w3.org/2000/svg">
<ellipse cx="50.3683" cy="91.1253" rx="39.1753" ry="15.6945" fill="black" fill-opacity="0.09"/>
<path d="M92.342 52.3149C94.9211 62.0769 99.177 67.6178 95.5967 69.1572C92.0165 70.6966 85.8876 64.4406 81.9075 55.184C77.9274 45.9275 77.6033 37.1756 81.1835 35.6362C84.7637 34.0968 89.7682 42.5732 92.342 52.3149Z" fill="#231F20"/>
<path d="M7.79099 51.9061C5.34885 62.4069 0.442563 68.1201 5.08429 70.1289C9.72603 72.1377 16.9346 65.8044 21.185 55.9831C25.4354 46.1617 25.1182 36.5714 20.4765 34.5626C15.8348 32.5538 10.228 41.427 7.79099 51.9061Z" fill="#231F20"/>
<path d="M87.1288 49.8817C88.8318 78.9626 86.5199 99.2802 50.7514 99.2802C8.8951 99.2802 12.1844 76.1643 14.1313 49.8817C16.1664 22.4081 20.7011 -0.00265659 50.6301 2.36204e-07C74.7193 0.00213866 85.5183 22.3799 87.1288 49.8817Z" fill="#231F20"/>
<path d="M34.674 20.8043C35.8905 25.4275 38.6139 35.8914 38.6139 35.8914C41.852 45.0152 48.4685 40.2712 49.1985 39.5412C51.7389 37.0009 54.8047 22.787 55.9649 18.4935C57.1815 13.9912 68.2528 9.61147 71.2194 23.3601C71.2194 23.3601 77.6734 51.5403 78.6408 58.642C80.381 71.4165 75.4776 82.6095 75.4776 82.6095C73.6959 86.2442 70.7328 93.4375 51.5101 94.1677C43.8366 94.4593 38.8098 94.4897 32.1657 90.6395C26.5238 87.3701 23.9589 84.1382 20.7295 78.4733C14.3945 67.3607 19.3912 45.746 19.3912 45.746C19.3912 45.746 20.7841 26.0502 23.8927 18.4936C25.5114 14.5586 32.1446 11.1921 34.674 20.8043Z" fill="white"/>
<circle cx="29.1992" cy="27.2524" r="2.9199" fill="#231F20"/>
<circle cx="62.7779" cy="27.2524" r="2.9199" fill="#231F20"/>
<path d="M45.1369 36.2554C44.1638 36.2499 40.6354 33.1286 40.6354 32.2914C40.6354 32.1656 44.3165 31.1485 45.6418 30.7864C45.9478 30.7028 46.2693 30.7164 46.5668 30.8265C47.525 31.1813 49.6561 31.9878 49.6383 32.138C49.5187 33.1463 46.11 36.2609 45.1369 36.2554Z" fill="#D15E48"/>
<path d="M45.1367 26.0356C46.1098 26.0442 49.6383 30.9299 49.6383 32.2404C49.6383 32.4267 46.3383 33.8638 44.8624 34.4973C44.4214 34.6865 43.9193 34.6576 43.5048 34.4158C42.4792 33.8173 40.6186 32.7001 40.6352 32.4804C40.7549 30.9022 44.1636 26.027 45.1367 26.0356Z" fill="#FC7960"/>
<ellipse cx="71.1716" cy="92.9176" rx="3.38129" ry="8.52086" transform="rotate(-170.247 71.1716 92.9176)" fill="#FC7960"/>
<ellipse cx="68.1265" cy="92.8654" rx="4.05755" ry="8.52086" transform="rotate(173.638 68.1265 92.8654)" fill="#FC7960"/>
<ellipse cx="66.1724" cy="93.9129" rx="4.05755" ry="8.52086" transform="rotate(150 66.1724 93.9129)" fill="#FC7960"/>
<ellipse cx="3.17893" cy="8.59605" rx="3.17893" ry="8.59605" transform="matrix(-0.672812 -0.739814 0.657096 -0.753807 28.0193 102.591)" fill="#FC7960"/>
<ellipse cx="3.71448" cy="8.78752" rx="3.71448" ry="8.78752" transform="matrix(-0.903396 -0.428807 0.369076 -0.929399 29.0973 102.007)" fill="#FC7960"/>
<ellipse cx="3.67968" cy="8.85185" rx="3.67968" ry="8.85185" transform="matrix(-0.999902 0.014029 -0.0106906 -0.999943 29.9338 100.461)" fill="#FC7960"/>
</svg>
